<?xml version="1.0" encoding="UTF-8" standalone="no"?>
<svg
   width="96"
   height="96"
   enable-background="new 0 0 96 96"
   version="1.1"
   viewBox="0 0 96 96"
   id="svg10"
   xml:space="preserve"
   xmlns="http://www.w3.org/2000/svg"
   xmlns:svg="http://www.w3.org/2000/svg"><defs
     id="defs6"><linearGradient
       id="a"
       x1="48"
       x2="48"
       y1="8"
       y2="88.001"
       gradientUnits="userSpaceOnUse"><stop
         style="stop-color:#fcfcfc"
         offset=".04"
         id="stop1" /><stop
         style="stop-color:#fcbcb7"
         offset=".19"
         id="stop2" /><stop
         style="stop-color:#ff988c"
         offset=".51"
         id="stop3" /><stop
         style="stop-color:#ff503c"
         offset="1"
         id="stop4" /></linearGradient><linearGradient
       id="b"
       x1="48"
       x2="48"
       y1="8.0107"
       y2="87.99"
       gradientUnits="userSpaceOnUse"><stop
         style="stop-color:#fe6f6f;stop-opacity:1;"
         offset="0"
         id="stop5" /><stop
         style="stop-color:#e80000;stop-opacity:1;"
         offset="0.47892505"
         id="stop10" /><stop
         style="stop-color:#800000;stop-opacity:1;"
         offset="1"
         id="stop6" /></linearGradient></defs><g
     id="g6"
     style="display:inline"><path
       id="rect6"
       style="display:inline;fill-opacity:0"
       d="M 0,0 H 96 V 96 H 0 Z" /></g><g
     id="g7"><path
       d="m 88.023,49 c 0,29.633 -10.364,40 -40,40 -29.635,0 -40,-10.367 -40,-40 0,-29.634 10.366,-40 40,-40 29.636,0 40,10.365 40,40 z"
       style="display:inline;opacity:0.4"
       id="path6" /></g><g
     id="g8"
     transform="translate(-0.12929953,-0.12929953)"><path
       d="m 8,47.989 c 0,29.633 10.365,40 40,40 29.637,0 40,-10.367 40,-40 C 88,19.004 78.074,8.459 49.909,8.01 H 46.092 C 17.928,8.459 8,19.004 8,47.989 Z"
       clip-rule="evenodd"
       style="display:inline;fill:url(#b);fill-rule:evenodd"
       id="path7" /><path
       d="M 48,8 C 18.365,8 8,18.365 8,48 8,77.633 18.365,88 48,88 77.637,88 88,77.633 88,48 88,18.365 77.637,8 48,8 Z m 0,79.023 C 18.842,87.023 9,77.176 9,48 9,18.824 18.842,8.977 48,8.977 77.158,8.977 87,18.824 87,48 87,77.176 77.158,87.023 48,87.023 Z"
       style="display:inline;opacity:0.25;fill:url(#a)"
       id="path8" /></g><g
     id="layer7"><path
       style="display:inline;fill:#000000;fill-opacity:1;opacity:0.5"
       d="m 41.027219,65.960373 c -5.34938,-0.145845 -7.086079,-0.237248 -10.003126,-0.526464 -3.260863,-0.323304 -4.075506,-0.614521 -5.589309,-1.998051 -0.357497,-0.326732 -0.598888,-0.651471 -1.048652,-1.410731 -0.322149,-0.543828 -0.704589,-1.958271 -0.881625,-3.260666 -0.200185,-1.472687 -0.23235,-1.802667 -0.403813,-4.142708 -0.105323,-1.437392 -0.106616,-10.004726 -0.0017,-11.417709 0.188189,-2.535058 0.335136,-3.865443 0.550585,-4.984722 0.04279,-0.222292 0.103207,-0.540573 0.134262,-0.707292 0.526079,-2.824276 2.58512,-4.587877 5.825693,-4.989794 1.279219,-0.158658 1.798658,-0.212095 2.559722,-0.26333 0.444584,-0.02993 1.111459,-0.08667 1.481945,-0.126096 2.474606,-0.263323 15.298871,-0.440834 20.679863,-0.286248 3.960127,0.113768 6.245355,0.207469 7.005556,0.287247 0.370487,0.03888 1.052518,0.09628 1.515626,0.127563 1.572123,0.106187 2.767499,0.262637 4.007986,0.524564 1.53718,0.324573 3.138038,1.696001 3.886026,3.329092 0.176785,0.385976 0.38633,1.136661 0.521578,1.86853 0.0445,0.240816 0.107044,0.559097 0.13898,0.707292 0.03194,0.148194 0.09248,0.587725 0.13455,0.976736 0.04206,0.38901 0.09202,0.783073 0.111009,0.875694 0.01899,0.09262 0.06075,0.501841 0.0928,0.909375 0.03205,0.407535 0.09632,1.225973 0.142824,1.81875 0.119612,1.524822 0.122123,9.796163 0.0034,11.249306 -0.169717,2.077544 -0.208397,2.496421 -0.2768,2.997569 -0.03793,0.277865 -0.0991,0.747709 -0.135939,1.044098 -0.03684,0.296388 -0.0806,0.599513 -0.09724,0.673611 -0.01664,0.0741 -0.06561,0.316597 -0.108809,0.538889 -0.337241,1.735175 -0.805987,2.729394 -1.717027,3.641848 -1.127494,1.129243 -2.193704,1.611103 -4.093117,1.84983 -0.287127,0.03609 -0.772127,0.09726 -1.077778,0.135946 -0.305651,0.03868 -0.949792,0.09859 -1.431424,0.133133 -0.481632,0.03454 -1.284913,0.09266 -1.785069,0.129157 -3.678444,0.268418 -15.028033,0.43498 -20.140975,0.295581 z M 43.749043,55.77555 c 0.487905,-0.291627 1.022358,-0.599181 1.187673,-0.683453 0.165315,-0.08427 0.740105,-0.417152 1.277309,-0.739732 0.537205,-0.322581 1.32533,-0.782989 1.75139,-1.023128 0.426059,-0.24014 1.183871,-0.6741 1.684027,-0.964357 0.500157,-0.290257 1.151876,-0.662434 1.448265,-0.82706 0.296388,-0.164627 0.887482,-0.50384 1.313541,-0.753807 0.426059,-0.249968 1.165441,-0.678501 1.643071,-0.952297 1.202126,-0.689105 1.40408,-0.872028 1.20119,-1.087994 -0.183135,-0.194939 -1.473892,-0.95935 -5.18867,-3.072832 -0.285141,-0.162228 -0.791251,-0.453134 -1.124688,-0.646458 -0.333438,-0.193323 -0.818438,-0.473386 -1.077778,-0.62236 -0.25934,-0.148975 -0.683716,-0.39351 -0.943056,-0.543412 -0.25934,-0.149902 -1.017153,-0.584924 -1.684028,-0.966717 -0.666875,-0.381792 -1.437147,-0.839733 -1.711715,-1.017646 -1.252461,-0.811561 -1.151132,-1.429187 -1.151132,7.016433 0,8.588973 -0.157419,7.800527 1.374601,6.88482 z"
       id="path20" /></g><g
     id="layer6"><path
       style="display:inline;fill:#ffffff;fill-opacity:1"
       d="M 41.527175,65.0605 C 36.177795,64.914655 34.441096,64.823252 31.524049,64.534036 28.263186,64.210732 27.448543,63.919515 25.93474,62.535985 25.577243,62.209253 25.335852,61.884514 24.886088,61.125254 24.563939,60.581426 24.181499,59.166983 24.004463,57.864588 23.804278,56.391901 23.772113,56.061921 23.60065,53.72188 23.495327,52.284488 23.494034,43.717154 23.59895,42.304171 c 0.188189,-2.535058 0.335136,-3.865443 0.550585,-4.984722 0.04279,-0.222292 0.103207,-0.540573 0.134262,-0.707292 0.526079,-2.824276 2.58512,-4.587877 5.825693,-4.989794 1.279219,-0.158658 1.798658,-0.212095 2.559722,-0.26333 0.444584,-0.02993 1.111459,-0.08667 1.481945,-0.126096 2.474606,-0.263323 15.298871,-0.440834 20.679863,-0.286248 3.960127,0.113768 6.245355,0.207469 7.005556,0.287247 0.370487,0.03888 1.052518,0.09628 1.515626,0.127563 1.572123,0.106187 2.767499,0.262637 4.007986,0.524564 1.53718,0.324573 3.138038,1.696001 3.886026,3.329092 0.176785,0.385976 0.38633,1.136661 0.521578,1.86853 0.0445,0.240816 0.107044,0.559097 0.13898,0.707292 0.03194,0.148194 0.09248,0.587725 0.13455,0.976736 0.04206,0.38901 0.09202,0.783073 0.111009,0.875694 0.01899,0.09262 0.06075,0.501841 0.0928,0.909375 0.03205,0.407535 0.09632,1.225973 0.142824,1.81875 0.119612,1.524822 0.122123,9.796163 0.0034,11.249306 -0.169717,2.077544 -0.208397,2.496421 -0.2768,2.997569 -0.03793,0.277865 -0.0991,0.747709 -0.135939,1.044098 -0.03684,0.296388 -0.0806,0.599513 -0.09724,0.673611 -0.01664,0.0741 -0.06561,0.316597 -0.108809,0.538889 -0.337241,1.735175 -0.805987,2.729394 -1.717027,3.641848 -1.127494,1.129243 -2.193704,1.611103 -4.093117,1.84983 -0.287127,0.03609 -0.772127,0.09726 -1.077778,0.135946 -0.305651,0.03868 -0.949792,0.09859 -1.431424,0.133133 -0.481632,0.03454 -1.284913,0.09266 -1.785069,0.129157 -3.678444,0.268418 -15.028033,0.43498 -20.140975,0.295581 z m 2.721824,-10.184823 c 0.487905,-0.291627 1.022358,-0.599181 1.187673,-0.683453 0.165315,-0.08427 0.740105,-0.417152 1.277309,-0.739732 0.537205,-0.322581 1.32533,-0.782989 1.75139,-1.023128 0.426059,-0.24014 1.183871,-0.6741 1.684027,-0.964357 0.500157,-0.290257 1.151876,-0.662434 1.448265,-0.82706 0.296388,-0.164627 0.887482,-0.50384 1.313541,-0.753807 0.426059,-0.249968 1.165441,-0.678501 1.643071,-0.952297 1.202126,-0.689105 1.40408,-0.872028 1.20119,-1.087994 -0.183135,-0.194939 -1.473892,-0.95935 -5.18867,-3.072832 -0.285141,-0.162228 -0.791251,-0.453134 -1.124688,-0.646458 -0.333438,-0.193323 -0.818438,-0.473386 -1.077778,-0.62236 -0.25934,-0.148975 -0.683716,-0.39351 -0.943056,-0.543412 -0.25934,-0.149902 -1.017153,-0.584924 -1.684028,-0.966717 -0.666875,-0.381792 -1.437147,-0.839733 -1.711715,-1.017646 -1.252461,-0.811561 -1.151132,-1.429187 -1.151132,7.016433 0,8.588973 -0.157419,7.800527 1.374601,6.88482 z"
       id="path20-7" /></g></svg>
